<svg xmlns="http://www.w3.org/2000/svg" viewBox="0 0 240 160" width="240" height="160">
  <rect width="240" height="160" fill="#1a2d1f"/>
  <g transform="translate(78,22)">
    <rect x="0" y="0" width="38" height="42" rx="5" fill="#1e3d28"/>
    <rect x="2" y="2" width="34" height="16" rx="3" fill="#1D9E75" opacity="0.3"/>
    <rect x="4" y="6" width="10" height="6" rx="2" fill="#1D9E75"/>
    <rect x="4" y="22" width="30" height="3" rx="1.5" fill="#1D9E75" opacity="0.5"/>
    <rect x="4" y="28" width="20" height="3" rx="1.5" fill="#1D9E75" opacity="0.3"/>
    <rect x="46" y="0" width="38" height="20" rx="5" fill="#1e3d28"/>
    <polyline points="50,16 56,8 62,12 68,4 74,6 80,2" fill="none" stroke="#1D9E75" stroke-width="2.5" stroke-linecap="round" stroke-linejoin="round"/>
    <rect x="46" y="26" width="38" height="16" rx="5" fill="#1e3d28"/>
    <rect x="50" y="30" width="8" height="8" rx="1" fill="#1D9E75" opacity="0.8"/>
    <rect x="60" y="32" width="8" height="6" rx="1" fill="#1D9E75" opacity="0.5"/>
    <rect x="70" y="29" width="8" height="9" rx="1" fill="#1D9E75" opacity="0.3"/>
    <rect x="0" y="48" width="84" height="28" rx="5" fill="#1e3d28"/>
    <circle cx="18" cy="62" r="10" fill="none" stroke="#1D9E75" stroke-width="3"/>
    <path d="M18 52 A10 10 0 0 1 28 62" stroke="#5DCAA5" stroke-width="3" fill="none" stroke-linecap="round"/>
    <rect x="36" y="54" width="40" height="3" rx="1.5" fill="#1D9E75" opacity="0.5"/>
    <rect x="36" y="60" width="28" height="3" rx="1.5" fill="#1D9E75" opacity="0.3"/>
    <rect x="36" y="66" width="34" height="3" rx="1.5" fill="#1D9E75" opacity="0.2"/>
  </g>
</svg>